<svg version="1.1" width="1400" height="600"
	xmlns="http://www.w3.org/2000/svg" viewBox="-833.3333333333334 0 1400 600">
	<g id="secLayer">
		<rect x="-1600" width="812.0639322916667" y="0" height="100%" fill="#111"></rect>
		<rect x="-787.9360677083333" width="14.065963541666667" y="0" height="100%" fill="#333"></rect>
		<rect x="-773.8701041666667" width="10.666666666666666" y="0" height="100%" fill="#111"></rect>
		<rect x="-763.2034375" width="17.7788671875" y="0" height="100%" fill="#333"></rect>
		<rect x="-745.4245703125" width="14.027161458333333" y="0" height="100%" fill="#333"></rect>
		<rect x="-731.3974088541667" width="10.666666666666666" y="0" height="100%" fill="#111"></rect>
		<rect x="-720.7307421875" width="5.333333333333333" y="0" height="100%" fill="#333"></rect>
		<rect x="-715.3974088541667" width="5.333333333333333" y="0" height="100%" fill="#333"></rect>
		<rect x="-710.0640755208333" width="31.255338541666667" y="0" height="100%" fill="#111"></rect>
		<rect x="-678.8087369791666" width="5.333333333333333" y="0" height="100%" fill="#333"></rect>
		<rect x="-673.4754036458334" width="6.077994791666667" y="0" height="100%" fill="#333"></rect>
		<rect x="-667.3974088541667" width="31.012799479166667" y="0" height="100%" fill="#111"></rect>
		<rect x="-636.384609375" width="5.333333333333333" y="0" height="100%" fill="#333"></rect>
		<rect x="-631.0512760416667" width="6.126666666666667" y="0" height="100%" fill="#333"></rect>
		<rect x="-624.924609375" width="31.206666666666667" y="0" height="100%" fill="#111"></rect>
		<rect x="-593.7179427083333" width="7.245026041666667" y="0" height="100%" fill="#333"></rect>
		<rect x="-586.4729166666667" width="5.333333333333333" y="0" height="100%" fill="#333"></rect>
		<rect x="-581.1395833333333" width="29.8458984375" y="0" height="100%" fill="#111"></rect>
		<rect x="-551.2936848958333" width="7.332434895833333" y="0" height="100%" fill="#333"></rect>
		<rect x="-543.96125" width="5.333333333333333" y="0" height="100%" fill="#333"></rect>
		<rect x="-538.6279166666667" width="10.666666666666666" y="0" height="100%" fill="#111"></rect>
		<rect x="-527.96125" width="26.472265625" y="0" height="100%" fill="#333"></rect>
		<rect x="-501.488984375" width="5.333333333333333" y="0" height="100%" fill="#333"></rect>
		<rect x="-496.15565104166666" width="10.666666666666666" y="0" height="100%" fill="#111"></rect>
		<rect x="-485.488984375" width="26.666666666666668" y="0" height="100%" fill="#333"></rect>
		<rect x="-458.82231770833334" width="14.144036458333334" y="0" height="100%" fill="#333"></rect>
		<rect x="-444.67828125" width="10.666666666666666" y="0" height="100%" fill="#111"></rect>
		<rect x="-434.0116145833333" width="17.5067578125" y="0" height="100%" fill="#333"></rect>
		<rect x="-416.5048567708333" width="14.299583333333333" y="0" height="100%" fill="#333"></rect>
		<rect x="-402.2052734375" width="10.666666666666666" y="0" height="100%" fill="#111"></rect>
		<rect x="-391.5386067708333" width="17.700416666666666" y="0" height="100%" fill="#333"></rect>
		<rect x="-373.83819010416664" width="14.105182291666667" y="0" height="100%" fill="#333"></rect>
		<rect x="-359.7330078125" width="43.63265625" y="0" height="100%" fill="#111"></rect>
		<rect x="-316.1003515625" width="27.401302083333334" y="0" height="100%" fill="#333"></rect>
		<rect x="-288.69904947916666" width="14.105091145833333" y="0" height="100%" fill="#333"></rect>
		<rect x="-274.5939583333333" width="10.666666666666666" y="0" height="100%" fill="#111"></rect>
		<rect x="-263.9272916666667" width="17.545989583333334" y="0" height="100%" fill="#333"></rect>
		<rect x="-246.38130208333334" width="14.26046875" y="0" height="100%" fill="#333"></rect>
		<rect x="-232.12083333333334" width="10.666666666666666" y="0" height="100%" fill="#111"></rect>
		<rect x="-221.45416666666668" width="17.73953125" y="0" height="100%" fill="#333"></rect>
		<rect x="-203.71463541666665" width="14.066276041666667" y="0" height="100%" fill="#333"></rect>
		<rect x="-189.648359375" width="10.666666666666666" y="0" height="100%" fill="#111"></rect>
		<rect x="-178.98169270833333" width="17.739752604166668" y="0" height="100%" fill="#333"></rect>
		<rect x="-161.24194010416667" width="14.260247395833334" y="0" height="100%" fill="#333"></rect>
		<rect x="-146.98169270833333" width="52.3946484375" y="0" height="100%" fill="#111"></rect>
		<rect x="-94.58704427083333" width="5.333333333333333" y="0" height="100%" fill="#333"></rect>
		<rect x="-89.2537109375" width="27.411276041666667" y="0" height="100%" fill="#333"></rect>
		<rect x="-61.842434895833335" width="10.666666666666666" y="0" height="100%" fill="#111"></rect>
		<rect x="-51.175768229166664" width="5.333333333333333" y="0" height="100%" fill="#333"></rect>
		<rect x="-45.842434895833335" width="26.279244791666667" y="0" height="100%" fill="#333"></rect>
		<rect x="-19.563190104166665" width="10.666666666666666" y="0" height="100%" fill="#111"></rect>
		<rect x="-8.8965234375" width="5.333333333333333" y="0" height="100%" fill="#333"></rect>
		<rect x="-3.5631901041666665" width="5.333333333333333" y="0" height="100%" fill="#333"></rect>
		<rect x="1.7701432291666668" width="31.20671875" y="0" height="100%" fill="#111"></rect>
		<rect x="32.976861979166664" width="5.333333333333333" y="0" height="100%" fill="#333"></rect>
		<rect x="38.3101953125" width="6.126614583333334" y="0" height="100%" fill="#333"></rect>
		<rect x="44.436809895833335" width="10.666666666666666" y="0" height="100%" fill="#111"></rect>
		<rect x="55.1034765625" width="18.5869140625" y="0" height="100%" fill="#333"></rect>
		<rect x="73.690390625" width="13.025885416666666" y="0" height="100%" fill="#333"></rect>
		<rect x="86.71627604166666" width="31.351510416666667" y="0" height="100%" fill="#111"></rect>
		<rect x="118.06778645833333" width="7.099973958333333" y="0" height="100%" fill="#333"></rect>
		<rect x="125.16776041666667" width="5.333541666666667" y="0" height="100%" fill="#333"></rect>
		<rect x="130.50130208333334" width="29.84572916666667" y="0" height="100%" fill="#111"></rect>
		<rect x="160.34703125" width="7.293736979166667" y="0" height="100%" fill="#333"></rect>
		<rect x="167.64076822916667" width="5.372200520833333" y="0" height="100%" fill="#333"></rect>
		<rect x="173.01296875" width="10.666666666666666" y="0" height="100%" fill="#111"></rect>
		<rect x="183.67963541666666" width="26.4333984375" y="0" height="100%" fill="#333"></rect>
		<rect x="210.11303385416667" width="5.372200520833333" y="0" height="100%" fill="#333"></rect>
		<rect x="215.485234375" width="10.666666666666666" y="0" height="100%" fill="#111"></rect>
		<rect x="226.15190104166666" width="5.333333333333333" y="0" height="100%" fill="#333"></rect>
		<rect x="231.485234375" width="35.47736979166667" y="0" height="100%" fill="#333"></rect>
		<rect x="266.96260416666667" width="10.666666666666666" y="0" height="100%" fill="#111"></rect>
		<rect x="277.62927083333335" width="17.468229166666667" y="0" height="100%" fill="#333"></rect>
		<rect x="295.0975" width="14.144869791666666" y="0" height="100%" fill="#333"></rect>
		<rect x="309.24236979166665" width="10.666666666666666" y="0" height="100%" fill="#111"></rect>
		<rect x="319.90903645833333" width="17.661588541666667" y="0" height="100%" fill="#333"></rect>
		<rect x="337.570625" width="14.144010416666667" y="0" height="100%" fill="#333"></rect>
		<rect x="351.7146354166667" width="43.632513020833336" y="0" height="100%" fill="#111"></rect>
		<rect x="395.3471484375" width="27.3626171875" y="0" height="100%" fill="#333"></rect>
		<rect x="422.709765625" width="14.143919270833333" y="0" height="100%" fill="#333"></rect>
		<rect x="436.85368489583334" width="10.666666666666666" y="0" height="100%" fill="#111"></rect>
		<rect x="447.5203515625" width="5.333333333333333" y="0" height="100%" fill="#333"></rect>
		<rect x="452.85368489583334" width="26.473125" y="0" height="100%" fill="#333"></rect>
		<rect x="479.3268098958333" width="10.666666666666666" y="0" height="100%" fill="#111"></rect>
		<rect x="489.9934765625" width="17.701041666666665" y="0" height="100%" fill="#333"></rect>
		<rect x="507.69451822916665" width="13.911640625" y="0" height="100%" fill="#333"></rect>
		<rect x="521.6061588541667" width="10.666666666666666" y="0" height="100%" fill="#111"></rect>
		<rect x="532.2728255208333" width="17.7009375" y="0" height="100%" fill="#333"></rect>
		<rect x="549.9737630208333" width="14.2990625" y="0" height="100%" fill="#333"></rect>
		<rect x="564.2728255208333" width="52.3944921875" y="0" height="100%" fill="#111"></rect>
		<rect x="616.6673177083334" width="39.585911458333335" y="0" height="100%" fill="#333"></rect>
		<rect x="656.2532291666666" width="35.438098958333335" y="0" height="100%" fill="#333"></rect>
		<rect x="691.691328125" width="10.666666666666666" y="0" height="100%" fill="#111"></rect>
		<rect x="702.3579947916667" width="5.333333333333333" y="0" height="100%" fill="#333"></rect>
		<rect x="707.691328125" width="5.333333333333333" y="0" height="100%" fill="#333"></rect>
		<rect x="713.0246614583333" width="533.3333333333334" y="0" height="100%" fill="#111"></rect>
	</g>
	<g id="jobLayer">
		<rect x="-1356.1999088541668" width="568.2638457753784" y="80" height="2" fill="lightgreen"></rect>
		<rect x="-1356.1999088541668" width="1.3199088541666666" y="80" height="1" fill="magenta"></rect>
		<rect x="-787.9360677083333" width="1.1094010416666666" y="80" height="1" fill="magenta"></rect>
		<rect x="-1484.1999088541668" width="710.329807219223" y="84" height="2" fill="yellow"></rect>
		<rect x="-1484.1999088541668" width="1.4265755208333333" y="84" height="1" fill="magenta"></rect>
		<rect x="-773.8701041666667" width="1.2301041666666668" y="84" height="1" fill="magenta"></rect>
		<rect x="-940.7373958333334" width="177.53395850829978" y="92" height="2" fill="cyan"></rect>
		<rect x="-940.7373958333334" width="1.6440625" y="92" height="1" fill="magenta"></rect>
		<rect x="-763.2034375" width="2.1367708333333333" y="92" height="1" fill="magenta"></rect>
		<rect x="-1313.5332421875" width="568.1086672265594" y="96" height="2" fill="lightgreen"></rect>
		<rect x="-1313.5332421875" width="0.7865755208333334" y="96" height="1" fill="magenta"></rect>
		<rect x="-745.4245703125" width="1.9045703125" y="96" height="1" fill="magenta"></rect>
		<rect x="-1441.5332421875" width="710.1358340331991" y="100" height="2" fill="yellow"></rect>
		<rect x="-1441.5332421875" width="4.4132421875" y="100" height="1" fill="magenta"></rect>
		<rect x="-731.3974088541667" width="5.6907421875" y="100" height="1" fill="magenta"></rect>
		<rect x="-898.2647005208333" width="177.53395850829978" y="108" height="2" fill="cyan"></rect>
		<rect x="-898.2647005208333" width="0.34470052083333336" y="108" height="1" fill="magenta"></rect>
		<rect x="-720.7307421875" width="1.2640755208333334" y="108" height="1" fill="magenta"></rect>
		<rect x="-1283.5060807291666" width="568.1086672265594" y="112" height="2" fill="lightgreen"></rect>
		<rect x="-1283.5060807291666" width="0.3060807291666667" y="112" height="1" fill="magenta"></rect>
		<rect x="-715.3974088541667" width="1.5307421875" y="112" height="1" fill="magenta"></rect>
		<rect x="-1420.1999088541668" width="710.1358340331991" y="116" height="2" fill="yellow"></rect>
		<rect x="-1420.1999088541668" width="0.7332421875" y="116" height="1" fill="magenta"></rect>
		<rect x="-710.0640755208333" width="2.1174088541666665" y="116" height="1" fill="magenta"></rect>
		<rect x="-856.3426953125" width="177.53395850829978" y="124" height="2" fill="cyan"></rect>
		<rect x="-856.3426953125" width="0.23602864583333333" y="124" height="1" fill="magenta"></rect>
		<rect x="-678.8087369791666" width="0.3020703125" y="124" height="1" fill="magenta"></rect>
		<rect x="-1241.5840755208333" width="568.1086672265594" y="128" height="2" fill="lightgreen"></rect>
		<rect x="-1241.5840755208333" width="0.30407552083333333" y="128" height="1" fill="magenta"></rect>
		<rect x="-673.4754036458334" width="1.3687369791666666" y="128" height="1" fill="magenta"></rect>
		<rect x="-1377.5332421875" width="710.1358340331991" y="132" height="2" fill="yellow"></rect>
		<rect x="-1377.5332421875" width="0.8932421875" y="132" height="1" fill="magenta"></rect>
		<rect x="-667.3974088541667" width="1.3707421875" y="132" height="1" fill="magenta"></rect>
		<rect x="-813.8701041666667" width="177.4854916891602" y="140" height="2" fill="cyan"></rect>
		<rect x="-813.8701041666667" width="0.3234375" y="140" height="1" fill="magenta"></rect>
		<rect x="-636.384609375" width="0.704609375" y="140" height="1" fill="magenta"></rect>
		<rect x="-1199.00484375" width="567.9535734053128" y="144" height="2" fill="lightgreen"></rect>
		<rect x="-1199.00484375" width="0.6581770833333334" y="144" height="1" fill="magenta"></rect>
		<rect x="-631.0512760416667" width="1.184609375" y="144" height="1" fill="magenta"></rect>
		<rect x="-1334.8665755208333" width="709.9419667566408" y="148" height="2" fill="yellow"></rect>
		<rect x="-1334.8665755208333" width="1.6399088541666667" y="148" height="1" fill="magenta"></rect>
		<rect x="-624.924609375" width="1.6712760416666668" y="148" height="1" fill="magenta"></rect>
		<rect x="-771.2034375" width="177.4854916891602" y="156" height="2" fill="cyan"></rect>
		<rect x="-771.2034375" width="0.37677083333333333" y="156" height="1" fill="magenta"></rect>
		<rect x="-593.7179427083333" width="1.1312760416666667" y="156" height="1" fill="magenta"></rect>
		<rect x="-1154.426484375" width="567.9535734053128" y="160" height="2" fill="lightgreen"></rect>
		<rect x="-1154.426484375" width="0.506484375" y="160" height="1" fill="magenta"></rect>
		<rect x="-586.4729166666667" width="1.3529166666666668" y="160" height="1" fill="magenta"></rect>
		<rect x="-1291.0815494791666" width="709.9419667566408" y="164" height="2" fill="yellow"></rect>
		<rect x="-1291.0815494791666" width="1.1615494791666667" y="164" height="1" fill="magenta"></rect>
		<rect x="-581.1395833333333" width="0.9795833333333334" y="164" height="1" fill="magenta"></rect>
		<rect x="-728.7307421875" width="177.43705132570793" y="172" height="2" fill="red"></rect>
		<rect x="-1111.7598177083332" width="567.7985642422653" y="176" height="2" fill="lightgreen"></rect>
		<rect x="-1111.7598177083332" width="0.45315104166666664" y="176" height="1" fill="magenta"></rect>
		<rect x="-543.96125" width="0.9745833333333334" y="176" height="1" fill="magenta"></rect>
		<rect x="-1248.3761197916667" width="709.7482053028317" y="180" height="2" fill="yellow"></rect>
		<rect x="-1248.3761197916667" width="0.9627864583333333" y="180" height="1" fill="magenta"></rect>
		<rect x="-538.6279166666667" width="1.56125" y="180" height="1" fill="magenta"></rect>
		<rect x="-705.3983072916667" width="177.43705132570793" y="188" height="2" fill="cyan"></rect>
		<rect x="-705.3983072916667" width="1.9849739583333332" y="188" height="1" fill="magenta"></rect>
		<rect x="-527.96125" width="2.4145833333333333" y="188" height="1" fill="magenta"></rect>
		<rect x="-1069.2875520833334" width="567.7985642422653" y="192" height="2" fill="lightgreen"></rect>
		<rect x="-1069.2875520833334" width="0.060885416666666664" y="192" height="1" fill="magenta"></rect>
		<rect x="-501.488984375" width="0.5823177083333333" y="192" height="1" fill="magenta"></rect>
		<rect x="-1205.9038541666666" width="709.7482053028317" y="196" height="2" fill="yellow"></rect>
		<rect x="-1205.9038541666666" width="0.6238541666666667" y="196" height="1" fill="magenta"></rect>
		<rect x="-496.15565104166666" width="0.9023177083333334" y="196" height="1" fill="magenta"></rect>
		<rect x="-662.9260416666667" width="177.43705132570793" y="204" height="2" fill="cyan"></rect>
		<rect x="-662.9260416666667" width="0.9527083333333334" y="204" height="1" fill="magenta"></rect>
		<rect x="-485.488984375" width="1.168984375" y="204" height="1" fill="magenta"></rect>
		<rect x="-1026.6208854166666" width="567.7985642422653" y="208" height="2" fill="lightgreen"></rect>
		<rect x="-1026.6208854166666" width="3.100885416666667" y="208" height="1" fill="magenta"></rect>
		<rect x="-458.82231770833334" width="2.768984375" y="208" height="1" fill="magenta"></rect>
		<rect x="-1154.426484375" width="709.7482053028317" y="212" height="2" fill="yellow"></rect>
		<rect x="-1154.426484375" width="0.506484375" y="212" height="1" fill="magenta"></rect>
		<rect x="-444.67828125" width="0.7316145833333333" y="212" height="1" fill="magenta"></rect>
		<rect x="-611.4002473958334" width="177.3886373962875" y="220" height="2" fill="cyan"></rect>
		<rect x="-611.4002473958334" width="0.5735807291666667" y="220" height="1" fill="magenta"></rect>
		<rect x="-434.0116145833333" width="0.7316145833333333" y="220" height="1" fill="magenta"></rect>
		<rect x="-984.1485026041667" width="567.64363966812" y="224" height="2" fill="lightgreen"></rect>
		<rect x="-984.1485026041667" width="0.09516927083333333" y="224" height="1" fill="magenta"></rect>
		<rect x="-416.5048567708333" width="0.23819010416666667" y="224" height="1" fill="magenta"></rect>
		<rect x="-1111.7598177083332" width="709.55454958515" y="228" height="2" fill="yellow"></rect>
		<rect x="-1111.7598177083332" width="0.45315104166666664" y="228" height="1" fill="magenta"></rect>
		<rect x="-402.2052734375" width="1.0319401041666667" y="228" height="1" fill="magenta"></rect>
		<rect x="-568.9272395833333" width="177.3886373962875" y="236" height="2" fill="cyan"></rect>
		<rect x="-568.9272395833333" width="0.6605729166666666" y="236" height="1" fill="magenta"></rect>
		<rect x="-391.5386067708333" width="1.0319401041666667" y="236" height="1" fill="magenta"></rect>
		<rect x="-941.4818359375" width="567.64363966812" y="240" height="2" fill="lightgreen"></rect>
		<rect x="-941.4818359375" width="0.8951692708333333" y="240" height="1" fill="magenta"></rect>
		<rect x="-373.83819010416664" width="1.3048567708333334" y="240" height="1" fill="magenta"></rect>
		<rect x="-1069.2875520833334" width="709.55454958515" y="244" height="2" fill="yellow"></rect>
		<rect x="-1069.2875520833334" width="0.060885416666666664" y="244" height="1" fill="magenta"></rect>
		<rect x="-359.7330078125" width="0.3730078125" y="244" height="1" fill="magenta"></rect>
		<rect x="-493.488984375" width="177.3886373962875" y="252" height="2" fill="cyan"></rect>
		<rect x="-493.488984375" width="0.048984375" y="252" height="1" fill="magenta"></rect>
		<rect x="-316.1003515625" width="0.20701822916666668" y="252" height="1" fill="magenta"></rect>
		<rect x="-856.3426953125" width="567.64363966812" y="256" height="2" fill="lightgreen"></rect>
		<rect x="-856.3426953125" width="0.23602864583333333" y="256" height="1" fill="magenta"></rect>
		<rect x="-288.69904947916666" width="0.4323828125" y="256" height="1" fill="magenta"></rect>
		<rect x="-984.1485026041667" width="709.55454958515" y="260" height="2" fill="yellow"></rect>
		<rect x="-984.1485026041667" width="0.09516927083333333" y="260" height="1" fill="magenta"></rect>
		<rect x="-274.72" width="0.12604166666666666" y="260" height="1" fill="magenta"></rect>
		<rect x="-441.2675390625" width="177.34024987926722" y="268" height="2" fill="cyan"></rect>
		<rect x="-441.2675390625" width="0.1475390625" y="268" height="1" fill="magenta"></rect>
		<rect x="-263.9272916666667" width="0.5139583333333333" y="268" height="1" fill="magenta"></rect>
		<rect x="-813.8701041666667" width="567.4887996136553" y="272" height="2" fill="lightgreen"></rect>
		<rect x="-813.8701041666667" width="0.37677083333333333" y="272" height="1" fill="magenta"></rect>
		<rect x="-246.38130208333334" width="0.8346354166666666" y="272" height="1" fill="magenta"></rect>
		<rect x="-941.4818359375" width="709.3609995170689" y="276" height="2" fill="yellow"></rect>
		<rect x="-941.4818359375" width="0.8951692708333333" y="276" height="1" fill="magenta"></rect>
		<rect x="-232.12083333333334" width="0.9208333333333333" y="276" height="1" fill="magenta"></rect>
		<rect x="-398.7944140625" width="177.34024987926722" y="284" height="2" fill="cyan"></rect>
		<rect x="-398.7944140625" width="0.34108072916666665" y="284" height="1" fill="magenta"></rect>
		<rect x="-221.45416666666668" width="0.7608333333333334" y="284" height="1" fill="magenta"></rect>
		<rect x="-771.2034375" width="567.4887996136553" y="288" height="2" fill="lightgreen"></rect>
		<rect x="-771.2034375" width="0.37677083333333333" y="288" height="1" fill="magenta"></rect>
		<rect x="-203.71463541666665" width="0.5146354166666667" y="288" height="1" fill="magenta"></rect>
		<rect x="-899.0093619791667" width="709.3609995170689" y="292" height="2" fill="yellow"></rect>
		<rect x="-899.0093619791667" width="0.12936197916666667" y="292" height="1" fill="magenta"></rect>
		<rect x="-189.648359375" width="0.15502604166666667" y="292" height="1" fill="magenta"></rect>
		<rect x="-356.3219401041667" width="177.34024987926722" y="300" height="2" fill="cyan"></rect>
		<rect x="-356.3219401041667" width="0.5352734375" y="300" height="1" fill="magenta"></rect>
		<rect x="-178.98169270833333" width="0.368359375" y="300" height="1" fill="magenta"></rect>
		<rect x="-728.7307421875" width="567.4887996136553" y="304" height="2" fill="lightgreen"></rect>
		<rect x="-728.7307421875" width="0.7307421875" y="304" height="1" fill="magenta"></rect>
		<rect x="-161.24194010416667" width="24.921940104166666" y="304" height="1" fill="magenta"></rect>
		<rect x="-856.3426953125" width="709.3609995170689" y="308" height="2" fill="yellow"></rect>
		<rect x="-856.3426953125" width="0.23602864583333333" y="308" height="1" fill="magenta"></rect>
		<rect x="-146.98169270833333" width="0.7950260416666667" y="308" height="1" fill="magenta"></rect>
		<rect x="-271.9272916666667" width="177.34024987926722" y="316" height="2" fill="cyan"></rect>
		<rect x="-271.9272916666667" width="0.5139583333333333" y="316" height="1" fill="magenta"></rect>
		<rect x="-94.58704427083333" width="0.9337109375" y="316" height="1" fill="magenta"></rect>
		<rect x="-656.7425130208334" width="567.4887996136553" y="320" height="2" fill="lightgreen"></rect>
		<rect x="-656.7425130208334" width="0.5291796875" y="320" height="1" fill="magenta"></rect>
		<rect x="-89.2537109375" width="0.24037760416666668" y="320" height="1" fill="magenta"></rect>
		<rect x="-771.2034375" width="709.3609995170689" y="324" height="2" fill="yellow"></rect>
		<rect x="-771.2034375" width="0.37677083333333333" y="324" height="1" fill="magenta"></rect>
		<rect x="-61.842434895833335" width="0.2957682291666667" y="324" height="1" fill="magenta"></rect>
		<rect x="-228.46765625" width="177.29188875303893" y="332" height="2" fill="cyan"></rect>
		<rect x="-228.48" width="0.01234375" y="332" height="1" fill="magenta"></rect>
		<rect x="-51.175768229166664" width="0.24243489583333333" y="332" height="1" fill="magenta"></rect>
		<rect x="-613.176484375" width="567.3340440097246" y="336" height="2" fill="lightgreen"></rect>
		<rect x="-613.176484375" width="0.536484375" y="336" height="1" fill="magenta"></rect>
		<rect x="-45.842434895833335" width="0.4024348958333333" y="336" height="1" fill="magenta"></rect>
		<rect x="-728.7307421875" width="709.1675550121557" y="340" height="2" fill="yellow"></rect>
		<rect x="-728.7307421875" width="0.7307421875" y="340" height="1" fill="magenta"></rect>
		<rect x="-186.18841145833332" width="177.29188875303893" y="348" height="2" fill="cyan"></rect>
		<rect x="-186.18841145833332" width="0.375078125" y="348" height="1" fill="magenta"></rect>
		<rect x="-8.8965234375" width="0.4698567708333333" y="348" height="1" fill="magenta"></rect>
		<rect x="-570.8972395833333" width="567.3340440097246" y="352" height="2" fill="lightgreen"></rect>
		<rect x="-570.8972395833333" width="0.07057291666666667" y="352" height="1" fill="magenta"></rect>
		<rect x="-3.5631901041666665" width="1.2698567708333333" y="352" height="1" fill="magenta"></rect>
		<rect x="-707.3974088541667" width="709.1675550121557" y="356" height="2" fill="yellow"></rect>
		<rect x="-707.3974088541667" width="1.6907421875" y="356" height="1" fill="magenta"></rect>
		<rect x="-144.31502604166667" width="177.29188875303893" y="364" height="2" fill="cyan"></rect>
		<rect x="-144.32" width="0.004973958333333334" y="364" height="1" fill="magenta"></rect>
		<rect x="-529.0238541666666" width="567.3340440097246" y="368" height="2" fill="lightgreen"></rect>
		<rect x="-529.0238541666666" width="1.6105208333333334" y="368" height="1" fill="magenta"></rect>
		<rect x="-664.7307421875" width="709.1675550121557" y="372" height="2" fill="yellow"></rect>
		<rect x="-664.7307421875" width="0.4640755208333333" y="372" height="1" fill="magenta"></rect>
		<rect x="-122.140078125" width="177.2435539960179" y="380" height="2" fill="red"></rect>
		<rect x="-493.488984375" width="567.1793727872574" y="384" height="2" fill="lightgreen"></rect>
		<rect x="-493.488984375" width="0.048984375" y="384" height="1" fill="magenta"></rect>
		<rect x="-622.2579427083333" width="708.9742159840716" y="388" height="2" fill="yellow"></rect>
		<rect x="-622.2579427083333" width="0.924609375" y="388" height="1" fill="magenta"></rect>
		<rect x="-59.175768229166664" width="177.2435539960179" y="396" height="2" fill="cyan"></rect>
		<rect x="-59.175768229166664" width="0.2957682291666667" y="396" height="1" fill="magenta"></rect>
		<rect x="-442.0116145833333" width="567.1793727872574" y="400" height="2" fill="lightgreen"></rect>
		<rect x="-442.0116145833333" width="0.03828125" y="400" height="1" fill="magenta"></rect>
		<rect x="-578.4729166666667" width="708.9742159840716" y="404" height="2" fill="yellow"></rect>
		<rect x="-578.4729166666667" width="3.96625" y="404" height="1" fill="magenta"></rect>
		<rect x="-16.8965234375" width="177.2435539960179" y="412" height="2" fill="red"></rect>
		<rect x="-399.5386067708333" width="567.1793727872574" y="416" height="2" fill="lightgreen"></rect>
		<rect x="-399.5386067708333" width="0.07194010416666667" y="416" height="1" fill="magenta"></rect>
		<rect x="-535.96125" width="708.9742159840716" y="420" height="2" fill="yellow"></rect>
		<rect x="-535.96125" width="0.76125" y="420" height="1" fill="magenta"></rect>
		<rect x="6.436080729166667" width="177.2435539960179" y="428" height="2" fill="cyan"></rect>
		<rect x="-357.06634114583335" width="567.1793727872574" y="432" height="2" fill="lightgreen"></rect>
		<rect x="-357.06634114583335" width="0.4263411458333333" y="432" height="1" fill="magenta"></rect>
		<rect x="-493.488984375" width="708.9742159840716" y="436" height="2" fill="yellow"></rect>
		<rect x="-493.488984375" width="0.048984375" y="436" height="1" fill="magenta"></rect>
		<rect x="48.90834635416667" width="177.2435539960179" y="444" height="2" fill="cyan"></rect>
		<rect x="-335.694140625" width="567.1793727872574" y="448" height="2" fill="lightgreen"></rect>
		<rect x="-335.694140625" width="0.44080729166666666" y="448" height="1" fill="magenta"></rect>
		<rect x="-442.0116145833333" width="708.9742159840716" y="452" height="2" fill="yellow"></rect>
		<rect x="-442.0116145833333" width="0.03828125" y="452" height="1" fill="magenta"></rect>
		<rect x="100.4340234375" width="177.19524558664315" y="460" height="2" fill="cyan"></rect>
		<rect x="-271.9272916666667" width="567.0247858772582" y="464" height="2" fill="lightgreen"></rect>
		<rect x="-271.9272916666667" width="0.5139583333333333" y="464" height="1" fill="magenta"></rect>
		<rect x="-399.5386067708333" width="708.7809823465726" y="468" height="2" fill="yellow"></rect>
		<rect x="-399.5386067708333" width="0.1252734375" y="468" height="1" fill="magenta"></rect>
		<rect x="142.7137890625" width="177.19524558664315" y="476" height="2" fill="cyan"></rect>
		<rect x="-229.45416666666668" width="567.0247858772582" y="480" height="2" fill="lightgreen"></rect>
		<rect x="-229.49333333333334" width="0.03916666666666667" y="480" height="1" fill="magenta"></rect>
		<rect x="-357.06634114583335" width="708.7809823465726" y="484" height="2" fill="yellow"></rect>
		<rect x="-357.06634114583335" width="0.3730078125" y="484" height="1" fill="magenta"></rect>
		<rect x="218.15190104166666" width="177.19524558664315" y="492" height="2" fill="cyan"></rect>
		<rect x="-144.31502604166667" width="567.0247858772582" y="496" height="2" fill="lightgreen"></rect>
		<rect x="-144.32" width="0.004973958333333334" y="496" height="1" fill="magenta"></rect>
		<rect x="-271.9272916666667" width="708.7809823465726" y="500" height="2" fill="yellow"></rect>
		<rect x="-271.9272916666667" width="0.5139583333333333" y="500" height="1" fill="magenta"></rect>
		<rect x="270.3251041666667" width="177.19524558664315" y="508" height="2" fill="cyan"></rect>
		<rect x="-114.17110677083333" width="567.0247858772582" y="512" height="2" fill="lightgreen"></rect>
		<rect x="-114.17110677083333" width="0.14444010416666667" y="512" height="1" fill="magenta"></rect>
		<rect x="-229.45416666666668" width="708.7809823465726" y="516" height="2" fill="yellow"></rect>
		<rect x="-229.49333333333334" width="0.03916666666666667" y="516" height="1" fill="magenta"></rect>
		<rect x="312.84651041666666" width="177.14696350337707" y="524" height="2" fill="cyan"></rect>
		<rect x="-59.175768229166664" width="566.8702832108066" y="528" height="2" fill="lightgreen"></rect>
		<rect x="-59.175768229166664" width="0.2957682291666667" y="528" height="1" fill="magenta"></rect>
		<rect x="-186.98169270833333" width="708.5878540135083" y="532" height="2" fill="yellow"></rect>
		<rect x="-186.98169270833333" width="0.10169270833333334" y="532" height="1" fill="magenta"></rect>
		<rect x="355.125859375" width="177.14696350337707" y="540" height="2" fill="cyan"></rect>
		<rect x="-16.8965234375" width="566.8702832108066" y="544" height="2" fill="lightgreen"></rect>
		<rect x="-16.906666666666666" width="0.010143229166666667" y="544" height="1" fill="magenta"></rect>
		<rect x="-144.31502604166667" width="708.5878540135083" y="548" height="2" fill="yellow"></rect>
		<rect x="-144.32" width="0.004973958333333334" y="548" height="1" fill="magenta"></rect>
		<rect x="439.5203515625" width="177.14696350337707" y="556" height="2" fill="cyan"></rect>
		<rect x="89.38294270833333" width="566.8702832108066" y="560" height="2" fill="lightgreen"></rect>
		<rect x="-16.8965234375" width="708.5878540135083" y="564" height="2" fill="yellow"></rect>
		<rect x="-16.8965234375" width="0.5765234375" y="564" height="1" fill="magenta"></rect>
		<rect x="525.2110286458334" width="177.14696350337707" y="572" height="2" fill="cyan"></rect>
		<rect x="140.82104166666667" width="566.8702832108066" y="576" height="2" fill="lightgreen"></rect>
		<rect x="4.436809895833333" width="708.5878540135083" y="580" height="2" fill="yellow"></rect>
	</g>
	<rect id="cursor" x="0" width="1" y="0" height="100%" fill="white"></rect>
	<g id="Legend" transform="translate(-525, 8), scale(.5, .5)">
		<rect x="1" y="1" width="275" height="310" fill="black" stroke="#979797"></rect>
		<g transform="translate(22, 13)">
			<rect x="0" y="10" width="22" height="22" fill="cyan"></rect>
			<text font-family="Courier New" font-size="36" fill="#888">
				<tspan x="42.5" y="30">Hack</tspan>
			</text>
		</g>
		<g transform="translate(22, 54)">
			<rect x="0" y="10" width="22" height="22" fill="lightgreen"></rect>
			<text font-family="Courier New" font-size="36" fill="#888">
				<tspan x="42.5" y="30">Grow</tspan>
			</text>
		</g>
		<g transform="translate(22, 95)">
			<rect x="0" y="10" width="22" height="22" fill="yellow"></rect>
			<text font-family="Courier New" font-size="36" fill="#888">
				<tspan x="42.5" y="30">Weaken</tspan>
			</text>
		</g>
		<g transform="translate(22, 136)">
			<rect x="0" y="10" width="22" height="22" fill="red"></rect>
			<text font-family="Courier New" font-size="36" fill="#888">
				<tspan x="42.5" y="30">Cancelled</tspan>
			</text>
		</g>
		<g transform="translate(22, 177)">
			<rect x="0" y="10" width="22" height="22" fill="magenta"></rect>
			<text font-family="Courier New" font-size="36" fill="#888">
				<tspan x="42.5" y="30">Desync</tspan>
			</text>
		</g>
		<g transform="translate(22, 218)">
			<rect x="0" y="10" width="22" height="22" fill="#111"></rect>
			<text font-family="Courier New" font-size="36" fill="#888">
				<tspan x="42.5" y="30">Safe</tspan>
			</text>
		</g>
		<g transform="translate(22, 259)">
			<rect x="0" y="10" width="22" height="22" fill="#333"></rect>
			<text font-family="Courier New" font-size="36" fill="#888">
				<tspan x="42.5" y="30">Unsafe</tspan>
			</text>
		</g>
	</g>
</svg>
