<svg version="1.1" width="1200" height="400" data-last-update="0"
	xmlns="http://www.w3.org/2000/svg" viewBox="-933.3333333333334 200 1200 400">
	<g id="secLayer" transform="translate(0,200)">
		<rect x="-1600" width="555.0604166666667" y="0" height="100%" fill="#111"></rect>
		<rect x="-1044.9395833333333" width="10.666666666666666" y="0" height="100%" fill="#111"></rect>
		<rect x="-1034.2729166666666" width="10.7752734375" y="0" height="100%" fill="#333"></rect>
		<rect x="-1023.4976432291667" width="28.901692708333332" y="0" height="100%" fill="#111"></rect>
		<rect x="-994.5959505208333" width="11.895078125" y="0" height="100%" fill="#333"></rect>
		<rect x="-982.7008723958334" width="23.05859375" y="0" height="100%" fill="#111"></rect>
		<rect x="-959.6422786458334" width="10.666666666666666" y="0" height="100%" fill="#333"></rect>
		<rect x="-948.9756119791666" width="28.784934895833334" y="0" height="100%" fill="#111"></rect>
		<rect x="-920.1906770833333" width="22.642903645833332" y="0" height="100%" fill="#333"></rect>
		<rect x="-897.5477734375" width="10.666666666666666" y="0" height="100%" fill="#111"></rect>
		<rect x="-886.8811067708333" width="24.205703125" y="0" height="100%" fill="#333"></rect>
		<rect x="-862.6754036458333" width="21.333333333333332" y="0" height="100%" fill="#111"></rect>
		<rect x="-841.3420703125" width="18.46096354166667" y="0" height="100%" fill="#333"></rect>
		<rect x="-822.8811067708333" width="10.666666666666666" y="0" height="100%" fill="#111"></rect>
		<rect x="-812.2144401041667" width="22.733307291666666" y="0" height="100%" fill="#333"></rect>
		<rect x="-789.4811328125" width="21.333333333333332" y="0" height="100%" fill="#111"></rect>
		<rect x="-768.1477994791667" width="10.666666666666666" y="0" height="100%" fill="#333"></rect>
		<rect x="-757.4811328125" width="22.407916666666665" y="0" height="100%" fill="#111"></rect>
		<rect x="-735.0732161458334" width="10.7748828125" y="0" height="100%" fill="#333"></rect>
		<rect x="-724.2983333333333" width="38.08796875" y="0" height="100%" fill="#111"></rect>
		<rect x="-686.2103645833333" width="10.711731770833333" y="0" height="100%" fill="#333"></rect>
		<rect x="-675.4986328125" width="13.655885416666667" y="0" height="100%" fill="#111"></rect>
		<rect x="-661.8427473958334" width="30.238697916666666" y="0" height="100%" fill="#333"></rect>
		<rect x="-631.6040494791666" width="21.333333333333332" y="0" height="100%" fill="#111"></rect>
		<rect x="-610.2707161458334" width="12.102864583333334" y="0" height="100%" fill="#333"></rect>
		<rect x="-598.1678515625" width="16.880286458333334" y="0" height="100%" fill="#111"></rect>
		<rect x="-581.2875651041667" width="24.350182291666666" y="0" height="100%" fill="#333"></rect>
		<rect x="-556.9373828125" width="21.333333333333332" y="0" height="100%" fill="#111"></rect>
		<rect x="-535.6040494791666" width="10.666666666666666" y="0" height="100%" fill="#333"></rect>
		<rect x="-524.9373828125" width="32.95259114583333" y="0" height="100%" fill="#111"></rect>
		<rect x="-491.9847916666667" width="10.738893229166667" y="0" height="100%" fill="#333"></rect>
		<rect x="-481.2458984375" width="26.106888020833335" y="0" height="100%" fill="#111"></rect>
		<rect x="-455.1390104166667" width="10.756809895833333" y="0" height="100%" fill="#333"></rect>
		<rect x="-444.38220052083335" width="14.636119791666667" y="0" height="100%" fill="#111"></rect>
		<rect x="-429.7460807291667" width="22.950520833333332" y="0" height="100%" fill="#333"></rect>
		<rect x="-406.7955598958333" width="26.278177083333333" y="0" height="100%" fill="#111"></rect>
		<rect x="-380.5173828125" width="25.257825520833332" y="0" height="100%" fill="#333"></rect>
		<rect x="-355.2595572916667" width="10.666666666666666" y="0" height="100%" fill="#111"></rect>
		<rect x="-344.592890625" width="10.7752734375" y="0" height="100%" fill="#333"></rect>
		<rect x="-333.8176171875" width="28.99171875" y="0" height="100%" fill="#111"></rect>
		<rect x="-304.8258984375" width="11.805052083333333" y="0" height="100%" fill="#333"></rect>
		<rect x="-293.0208463541667" width="22.9504296875" y="0" height="100%" fill="#111"></rect>
		<rect x="-270.0704166666667" width="10.774830729166666" y="0" height="100%" fill="#333"></rect>
		<rect x="-259.2955859375" width="28.920026041666667" y="0" height="100%" fill="#111"></rect>
		<rect x="-230.37555989583333" width="22.5078125" y="0" height="100%" fill="#333"></rect>
		<rect x="-207.86774739583333" width="10.666666666666666" y="0" height="100%" fill="#111"></rect>
		<rect x="-197.20108072916668" width="24.205703125" y="0" height="100%" fill="#333"></rect>
		<rect x="-172.99537760416666" width="21.333333333333332" y="0" height="100%" fill="#111"></rect>
		<rect x="-151.66204427083332" width="18.46096354166667" y="0" height="100%" fill="#333"></rect>
		<rect x="-133.20108072916668" width="10.666666666666666" y="0" height="100%" fill="#111"></rect>
		<rect x="-122.5344140625" width="22.733307291666666" y="0" height="100%" fill="#333"></rect>
		<rect x="-99.80110677083333" width="21.333333333333332" y="0" height="100%" fill="#111"></rect>
		<rect x="-78.4677734375" width="10.666666666666666" y="0" height="100%" fill="#333"></rect>
		<rect x="-67.80110677083333" width="22.4439453125" y="0" height="100%" fill="#111"></rect>
		<rect x="-45.35716145833333" width="10.738854166666666" y="0" height="100%" fill="#333"></rect>
		<rect x="-34.61830729166667" width="38.0429296875" y="0" height="100%" fill="#111"></rect>
		<rect x="3.4246223958333335" width="10.756770833333333" y="0" height="100%" fill="#333"></rect>
		<rect x="14.181393229166666" width="13.6919140625" y="0" height="100%" fill="#111"></rect>
		<rect x="27.873307291666666" width="30.202669270833333" y="0" height="100%" fill="#333"></rect>
		<rect x="58.0759765625" width="21.333333333333332" y="0" height="100%" fill="#111"></rect>
		<rect x="79.40930989583333" width="11.9228125" y="0" height="100%" fill="#333"></rect>
		<rect x="91.33212239583334" width="16.95233072916667" y="0" height="100%" fill="#111"></rect>
		<rect x="108.284453125" width="24.27813802083333" y="0" height="100%" fill="#333"></rect>
		<rect x="132.56259114583332" width="21.333333333333332" y="0" height="100%" fill="#111"></rect>
		<rect x="153.89592447916667" width="10.666666666666666" y="0" height="100%" fill="#333"></rect>
		<rect x="164.56259114583332" width="32.84450520833333" y="0" height="100%" fill="#111"></rect>
		<rect x="197.40709635416667" width="10.846979166666667" y="0" height="100%" fill="#333"></rect>
		<rect x="208.25407552083334" width="26.196901041666667" y="0" height="100%" fill="#111"></rect>
		<rect x="234.4509765625" width="10.666796875" y="0" height="100%" fill="#333"></rect>
		<rect x="245.1177734375" width="14.528033854166667" y="0" height="100%" fill="#111"></rect>
		<rect x="259.64580729166664" width="23.058606770833332" y="0" height="100%" fill="#333"></rect>
		<rect x="282.7044140625" width="26.233177083333334" y="0" height="100%" fill="#111"></rect>
		<rect x="308.9375911458333" width="25.302825520833334" y="0" height="100%" fill="#333"></rect>
		<rect x="334.24041666666665" width="10.666666666666666" y="0" height="100%" fill="#111"></rect>
		<rect x="344.90708333333333" width="10.7752734375" y="0" height="100%" fill="#333"></rect>
		<rect x="355.68235677083334" width="28.94671875" y="0" height="100%" fill="#111"></rect>
		<rect x="384.62907552083334" width="11.850052083333333" y="0" height="100%" fill="#333"></rect>
		<rect x="396.47912760416665" width="22.9864453125" y="0" height="100%" fill="#111"></rect>
		<rect x="419.46557291666664" width="10.738815104166667" y="0" height="100%" fill="#333"></rect>
		<rect x="430.20438802083333" width="28.87502604166667" y="0" height="100%" fill="#111"></rect>
		<rect x="459.0794140625" width="22.5528125" y="0" height="100%" fill="#333"></rect>
		<rect x="481.6322265625" width="10.666666666666666" y="0" height="100%" fill="#111"></rect>
		<rect x="492.29889322916665" width="24.205703125" y="0" height="100%" fill="#333"></rect>
		<rect x="516.5045963541667" width="21.333333333333332" y="0" height="100%" fill="#111"></rect>
		<rect x="537.8379296875" width="18.281015625" y="0" height="100%" fill="#333"></rect>
		<rect x="556.1189453125" width="10.666666666666666" y="0" height="100%" fill="#111"></rect>
		<rect x="566.7856119791667" width="22.733307291666666" y="0" height="100%" fill="#333"></rect>
		<rect x="589.5189192708333" width="21.333333333333332" y="0" height="100%" fill="#111"></rect>
		<rect x="610.8522526041667" width="10.666666666666666" y="0" height="100%" fill="#333"></rect>
		<rect x="621.5189192708333" width="22.3358984375" y="0" height="100%" fill="#111"></rect>
		<rect x="643.8548177083334" width="10.846901041666667" y="0" height="100%" fill="#333"></rect>
		<rect x="654.70171875" width="38.132890625" y="0" height="100%" fill="#111"></rect>
		<rect x="692.834609375" width="10.666809895833333" y="0" height="100%" fill="#333"></rect>
		<rect x="703.5014192708334" width="13.5838671875" y="0" height="100%" fill="#111"></rect>
		<rect x="717.0852864583334" width="30.310716145833332" y="0" height="100%" fill="#333"></rect>
		<rect x="747.3960026041667" width="533.3333333333334" y="0" height="100%" fill="#111"></rect>
	</g>
	<g id="jobLayer">
		<rect x="-1729.646640625" width="684.7070627250065" y="148" height="2" fill="yellow"></rect>
		<rect x="-1729.646640625" width="0.31330729166666665" y="148" height="1" fill="magenta"></rect>
		<rect x="-1044.9395833333333" width="0.2995833333333333" y="148" height="1" fill="magenta"></rect>
		<rect x="-1582.0385677083334" width="547.7656501800053" y="152" height="2" fill="lightgreen"></rect>
		<rect x="-1582.0385677083334" width="0.27856770833333333" y="152" height="1" fill="magenta"></rect>
		<rect x="-1034.2729166666666" width="0.13958333333333334" y="152" height="1" fill="magenta"></rect>
		<rect x="-1708.2047005208333" width="684.7070627250065" y="156" height="2" fill="yellow"></rect>
		<rect x="-1708.2047005208333" width="0.2580338541666667" y="156" height="1" fill="magenta"></rect>
		<rect x="-1023.4976432291667" width="0.2976432291666667" y="156" height="1" fill="magenta"></rect>
		<rect x="-1165.7727213541666" width="171.17676568125162" y="164" height="2" fill="cyan"></rect>
		<rect x="-1165.8133333333333" width="0.040611979166666666" y="164" height="1" fill="magenta"></rect>
		<rect x="-994.5959505208333" width="1.4759505208333332" y="164" height="1" fill="magenta"></rect>
		<rect x="-1667.4079296875" width="684.7070627250065" y="168" height="2" fill="yellow"></rect>
		<rect x="-1667.4079296875" width="0.4745963541666667" y="168" height="1" fill="magenta"></rect>
		<rect x="-982.7008723958334" width="0.8875390625" y="168" height="1" fill="magenta"></rect>
		<rect x="-1507.4079296875" width="547.7656501800053" y="172" height="2" fill="lightgreen"></rect>
		<rect x="-1507.4079296875" width="0.3679296875" y="172" height="1" fill="magenta"></rect>
		<rect x="-959.6422786458334" width="0.2289453125" y="172" height="1" fill="magenta"></rect>
		<rect x="-1633.6826692708332" width="684.7070627250065" y="176" height="2" fill="yellow"></rect>
		<rect x="-1633.6826692708332" width="0.2960026041666667" y="176" height="1" fill="magenta"></rect>
		<rect x="-948.9756119791666" width="0.12227864583333334" y="176" height="1" fill="magenta"></rect>
		<rect x="-1091.3223828125" width="171.1317073065001" y="184" height="2" fill="cyan"></rect>
		<rect x="-1091.3223828125" width="0.49571614583333334" y="184" height="1" fill="magenta"></rect>
		<rect x="-920.1906770833333" width="0.6706770833333333" y="184" height="1" fill="magenta"></rect>
		<rect x="-1582.0745963541667" width="684.5268292260004" y="188" height="2" fill="yellow"></rect>
		<rect x="-1582.0745963541667" width="0.31459635416666665" y="188" height="1" fill="magenta"></rect>
		<rect x="-897.5477734375" width="0.5344401041666667" y="188" height="1" fill="magenta"></rect>
		<rect x="-1434.5025651041667" width="547.6214633808004" y="192" height="2" fill="lightgreen"></rect>
		<rect x="-1434.5025651041667" width="0.2625651041666667" y="192" height="1" fill="magenta"></rect>
		<rect x="-886.8811067708333" width="0.2677734375" y="192" height="1" fill="magenta"></rect>
		<rect x="-1547.2022265625" width="684.5268292260004" y="196" height="2" fill="yellow"></rect>
		<rect x="-1547.2022265625" width="0.05555989583333333" y="196" height="1" fill="magenta"></rect>
		<rect x="-862.6754036458333" width="0.0620703125" y="196" height="1" fill="magenta"></rect>
		<rect x="-1012.4737760416666" width="171.1317073065001" y="204" height="2" fill="cyan"></rect>
		<rect x="-1012.4737760416666" width="0.527109375" y="204" height="1" fill="magenta"></rect>
		<rect x="-841.3420703125" width="1.5020703125" y="204" height="1" fill="magenta"></rect>
		<rect x="-1507.4079296875" width="684.5268292260004" y="208" height="2" fill="yellow"></rect>
		<rect x="-1507.4079296875" width="0.3679296875" y="208" height="1" fill="magenta"></rect>
		<rect x="-822.8811067708333" width="0.32110677083333333" y="208" height="1" fill="magenta"></rect>
		<rect x="-1359.8358984375" width="547.6214633808004" y="212" height="2" fill="lightgreen"></rect>
		<rect x="-1359.8358984375" width="0.2625651041666667" y="212" height="1" fill="magenta"></rect>
		<rect x="-812.2144401041667" width="0.32110677083333333" y="212" height="1" fill="magenta"></rect>
		<rect x="-1474.0079557291667" width="684.5268292260004" y="216" height="2" fill="yellow"></rect>
		<rect x="-1474.0266666666666" width="0.0187109375" y="216" height="1" fill="magenta"></rect>
		<rect x="-789.4933333333333" width="0.012200520833333334" y="216" height="1" fill="magenta"></rect>
		<rect x="-939.2795052083334" width="171.1317073065001" y="224" height="2" fill="cyan"></rect>
		<rect x="-939.2795052083334" width="0.3995052083333333" y="224" height="1" fill="magenta"></rect>
		<rect x="-768.1477994791667" width="0.5744661458333333" y="224" height="1" fill="magenta"></rect>
		<rect x="-1442.0079557291667" width="684.5268292260004" y="228" height="2" fill="yellow"></rect>
		<rect x="-1442.0266666666666" width="0.0187109375" y="228" height="1" fill="magenta"></rect>
		<rect x="-757.4933333333333" width="0.012200520833333334" y="228" height="1" fill="magenta"></rect>
		<rect x="-1282.6946744791667" width="547.6214633808004" y="232" height="2" fill="lightgreen"></rect>
		<rect x="-1282.6946744791667" width="1.8413411458333333" y="232" height="1" fill="magenta"></rect>
		<rect x="-735.0732161458334" width="2.2732161458333335" y="232" height="1" fill="magenta"></rect>
		<rect x="-1408.82515625" width="684.5268292260004" y="236" height="2" fill="yellow"></rect>
		<rect x="-1408.82515625" width="0.39848958333333334" y="236" height="1" fill="magenta"></rect>
		<rect x="-724.2983333333333" width="0.405" y="236" height="1" fill="magenta"></rect>
		<rect x="-857.3420703125" width="171.1317073065001" y="244" height="2" fill="cyan"></rect>
		<rect x="-857.3420703125" width="0.008736979166666667" y="244" height="1" fill="magenta"></rect>
		<rect x="-686.24" width="0.029635416666666668" y="244" height="1" fill="magenta"></rect>
		<rect x="-1360.0254557291667" width="684.5268292260004" y="248" height="2" fill="yellow"></rect>
		<rect x="-1360.0254557291667" width="0.45212239583333336" y="248" height="1" fill="magenta"></rect>
		<rect x="-675.4986328125" width="0.4586328125" y="248" height="1" fill="magenta"></rect>
		<rect x="-1209.4642057291667" width="547.6214633808004" y="252" height="2" fill="lightgreen"></rect>
		<rect x="-1209.4642057291667" width="0.2375390625" y="252" height="1" fill="magenta"></rect>
		<rect x="-661.8427473958334" width="0.24274739583333332" y="252" height="1" fill="magenta"></rect>
		<rect x="-1316.1308723958334" width="684.5268292260004" y="256" height="2" fill="yellow"></rect>
		<rect x="-1316.1308723958334" width="0.13087239583333332" y="256" height="1" fill="magenta"></rect>
		<rect x="-631.6040494791666" width="0.19071614583333332" y="256" height="1" fill="magenta"></rect>
		<rect x="-781.402421875" width="171.1317073065001" y="264" height="2" fill="cyan"></rect>
		<rect x="-781.402421875" width="0.015755208333333333" y="264" height="1" fill="magenta"></rect>
		<rect x="-610.2707161458334" width="0.08404947916666666" y="264" height="1" fill="magenta"></rect>
		<rect x="-1282.6946744791667" width="684.5268292260004" y="268" height="2" fill="yellow"></rect>
		<rect x="-1282.6946744791667" width="1.7880078125" y="268" height="1" fill="magenta"></rect>
		<rect x="-598.1678515625" width="2.114518229166667" y="268" height="1" fill="magenta"></rect>
		<rect x="-1128.9090234375" width="547.6214633808004" y="272" height="2" fill="lightgreen"></rect>
		<rect x="-1128.9090234375" width="0.8556901041666667" y="272" height="1" fill="magenta"></rect>
		<rect x="-581.2875651041667" width="0.7542317708333334" y="272" height="1" fill="magenta"></rect>
		<rect x="-1241.4642057291667" width="684.5268292260004" y="276" height="2" fill="yellow"></rect>
		<rect x="-1241.4642057291667" width="0.2375390625" y="276" height="1" fill="magenta"></rect>
		<rect x="-556.9373828125" width="0.19071614583333332" y="276" height="1" fill="magenta"></rect>
		<rect x="-706.7357552083333" width="171.1317073065001" y="284" height="2" fill="cyan"></rect>
		<rect x="-706.7357552083333" width="0.33575520833333333" y="284" height="1" fill="magenta"></rect>
		<rect x="-535.6040494791666" width="0.2973828125" y="284" height="1" fill="magenta"></rect>
		<rect x="-1209.4642057291667" width="684.5268292260004" y="288" height="2" fill="yellow"></rect>
		<rect x="-1209.4642057291667" width="0.2375390625" y="288" height="1" fill="magenta"></rect>
		<rect x="-524.9373828125" width="0.24404947916666667" y="288" height="1" fill="magenta"></rect>
		<rect x="-1039.60625" width="547.6214633808004" y="292" height="2" fill="lightgreen"></rect>
		<rect x="-1039.60625" width="0.032916666666666664" y="292" height="1" fill="magenta"></rect>
		<rect x="-492.05333333333334" width="0.06854166666666667" y="292" height="1" fill="magenta"></rect>
		<rect x="-1165.7727213541666" width="684.5268292260004" y="296" height="2" fill="yellow"></rect>
		<rect x="-1165.8133333333333" width="0.040611979166666666" y="296" height="1" fill="magenta"></rect>
		<rect x="-481.28" width="0.0341015625" y="296" height="1" fill="magenta"></rect>
		<rect x="-626.2707161458334" width="171.1317073065001" y="304" height="2" fill="cyan"></rect>
		<rect x="-626.2707161458334" width="0.40404947916666667" y="304" height="1" fill="magenta"></rect>
		<rect x="-455.1390104166667" width="0.5256770833333333" y="304" height="1" fill="magenta"></rect>
		<rect x="-1128.9090234375" width="684.5268292260004" y="308" height="2" fill="yellow"></rect>
		<rect x="-1128.9090234375" width="0.8556901041666667" y="308" height="1" fill="magenta"></rect>
		<rect x="-444.38220052083335" width="0.7555338541666666" y="308" height="1" fill="magenta"></rect>
		<rect x="-977.3675390625" width="547.6214633808004" y="312" height="2" fill="lightgreen"></rect>
		<rect x="-977.3866666666667" width="0.019127604166666666" y="312" height="1" fill="magenta"></rect>
		<rect x="-429.7460807291667" width="0.0394140625" y="312" height="1" fill="magenta"></rect>
		<rect x="-1091.3223828125" width="684.5268292260004" y="316" height="2" fill="yellow"></rect>
		<rect x="-1091.3223828125" width="0.49571614583333334" y="316" height="1" fill="magenta"></rect>
		<rect x="-406.7955598958333" width="0.3422265625" y="316" height="1" fill="magenta"></rect>
		<rect x="-551.6040494791666" width="171.08667264668256" y="324" height="2" fill="cyan"></rect>
		<rect x="-551.6040494791666" width="0.3507161458333333" y="324" height="1" fill="magenta"></rect>
		<rect x="-380.5173828125" width="0.5707161458333333" y="324" height="1" fill="magenta"></rect>
		<rect x="-1039.60625" width="684.3466905867302" y="328" height="2" fill="yellow"></rect>
		<rect x="-1039.60625" width="0.08625" y="328" height="1" fill="magenta"></rect>
		<rect x="-355.2595572916667" width="0.16622395833333334" y="328" height="1" fill="magenta"></rect>
		<rect x="-892.0702473958333" width="547.4773524693842" y="332" height="2" fill="lightgreen"></rect>
		<rect x="-892.0702473958333" width="1.9369140625" y="332" height="1" fill="magenta"></rect>
		<rect x="-344.592890625" width="2.1395572916666667" y="332" height="1" fill="magenta"></rect>
		<rect x="-1018.1643098958333" width="684.3466905867302" y="336" height="2" fill="yellow"></rect>
		<rect x="-1018.1643098958333" width="0.0309765625" y="336" height="1" fill="magenta"></rect>
		<rect x="-333.8176171875" width="0.11095052083333333" y="336" height="1" fill="magenta"></rect>
		<rect x="-475.9125651041667" width="171.08667264668256" y="344" height="2" fill="cyan"></rect>
		<rect x="-475.9125651041667" width="0.01923177083333333" y="344" height="1" fill="magenta"></rect>
		<rect x="-304.8258984375" width="0.3458984375" y="344" height="1" fill="magenta"></rect>
		<rect x="-977.3675390625" width="684.3466905867302" y="348" height="2" fill="yellow"></rect>
		<rect x="-977.3866666666667" width="0.019127604166666666" y="348" height="1" fill="magenta"></rect>
		<rect x="-293.0208463541667" width="0.16751302083333333" y="348" height="1" fill="magenta"></rect>
		<rect x="-817.5477734375" width="547.4773524693842" y="352" height="2" fill="lightgreen"></rect>
		<rect x="-817.5477734375" width="0.3744401041666667" y="352" height="1" fill="magenta"></rect>
		<rect x="-270.0704166666667" width="0.36375" y="352" height="1" fill="magenta"></rect>
		<rect x="-943.6422786458334" width="684.3466905867302" y="356" height="2" fill="yellow"></rect>
		<rect x="-943.6422786458334" width="0.0689453125" y="356" height="1" fill="magenta"></rect>
		<rect x="-259.2955859375" width="0.20225260416666666" y="356" height="1" fill="magenta"></rect>
		<rect x="-401.4622265625" width="171.08667264668256" y="364" height="2" fill="cyan"></rect>
		<rect x="-401.4622265625" width="0.12889322916666668" y="364" height="1" fill="magenta"></rect>
		<rect x="-230.37555989583333" width="0.0822265625" y="364" height="1" fill="magenta"></rect>
		<rect x="-892.2144401041667" width="684.3466905867302" y="368" height="2" fill="yellow"></rect>
		<rect x="-892.2144401041667" width="2.0811067708333333" y="368" height="1" fill="magenta"></rect>
		<rect x="-207.86774739583333" width="2.1077473958333335" y="368" height="1" fill="magenta"></rect>
		<rect x="-744.6784375" width="547.4773524693842" y="372" height="2" fill="lightgreen"></rect>
		<rect x="-744.6784375" width="0.6784375" y="372" height="1" fill="magenta"></rect>
		<rect x="-197.20108072916668" width="0.6677473958333333" y="372" height="1" fill="magenta"></rect>
		<rect x="-857.3420703125" width="684.3466905867302" y="376" height="2" fill="yellow"></rect>
		<rect x="-857.3420703125" width="0.008736979166666667" y="376" height="1" fill="magenta"></rect>
		<rect x="-172.99537760416666" width="0.14204427083333335" y="376" height="1" fill="magenta"></rect>
		<rect x="-322.7487109375" width="171.08667264668256" y="384" height="2" fill="cyan"></rect>
		<rect x="-322.7487109375" width="0.40204427083333333" y="384" height="1" fill="magenta"></rect>
		<rect x="-151.66204427083332" width="0.3553776041666667" y="384" height="1" fill="magenta"></rect>
		<rect x="-817.5477734375" width="684.3466905867302" y="388" height="2" fill="yellow"></rect>
		<rect x="-817.5477734375" width="0.3744401041666667" y="388" height="1" fill="magenta"></rect>
		<rect x="-133.20108072916668" width="1.0410807291666666" y="388" height="1" fill="magenta"></rect>
		<rect x="-670.0117708333333" width="547.4773524693842" y="392" height="2" fill="lightgreen"></rect>
		<rect x="-670.0117708333333" width="0.7317708333333334" y="392" height="1" fill="magenta"></rect>
		<rect x="-122.5344140625" width="1.2010807291666667" y="392" height="1" fill="magenta"></rect>
		<rect x="-784.1477994791667" width="684.3466905867302" y="396" height="2" fill="yellow"></rect>
		<rect x="-784.16" width="0.012200520833333334" y="396" height="1" fill="magenta"></rect>
		<rect x="-99.80110677083333" width="0.014440104166666667" y="396" height="1" fill="magenta"></rect>
		<rect x="-249.55444010416667" width="171.08667264668256" y="404" height="2" fill="cyan"></rect>
		<rect x="-249.55444010416667" width="0.3277734375" y="404" height="1" fill="magenta"></rect>
		<rect x="-78.4677734375" width="0.7611067708333333" y="404" height="1" fill="magenta"></rect>
		<rect x="-752.1477994791667" width="684.3466905867302" y="408" height="2" fill="yellow"></rect>
		<rect x="-752.1477994791667" width="0.0411328125" y="408" height="1" fill="magenta"></rect>
		<rect x="-67.80110677083333" width="0.0677734375" y="408" height="1" fill="magenta"></rect>
		<rect x="-592.8345182291666" width="547.4773524693842" y="412" height="2" fill="lightgreen"></rect>
		<rect x="-592.8345182291666" width="0.35451822916666664" y="412" height="1" fill="magenta"></rect>
		<rect x="-45.35716145833333" width="0.663828125" y="412" height="1" fill="magenta"></rect>
		<rect x="-718.965" width="684.3466905867302" y="416" height="2" fill="yellow"></rect>
		<rect x="-718.965" width="0.405" y="416" height="1" fill="magenta"></rect>
		<rect x="-34.61830729166667" width="0.6983072916666667" y="416" height="1" fill="magenta"></rect>
		<rect x="-167.66204427083332" width="171.08667264668256" y="424" height="2" fill="cyan"></rect>
		<rect x="-167.66204427083332" width="0.5687109375" y="424" height="1" fill="magenta"></rect>
		<rect x="-670.1652994791667" width="684.3466905867302" y="428" height="2" fill="yellow"></rect>
		<rect x="-670.1652994791667" width="0.8852994791666666" y="428" height="1" fill="magenta"></rect>
		<rect x="-519.6040494791666" width="547.4773524693842" y="432" height="2" fill="lightgreen"></rect>
		<rect x="-519.6040494791666" width="0.4573828125" y="432" height="1" fill="magenta"></rect>
		<rect x="-626.2707161458334" width="684.3466905867302" y="436" height="2" fill="yellow"></rect>
		<rect x="-626.2707161458334" width="0.4573828125" y="436" height="1" fill="magenta"></rect>
		<rect x="-91.63235677083334" width="171.04166168308177" y="444" height="2" fill="cyan"></rect>
		<rect x="-91.63235677083334" width="0.005690104166666667" y="444" height="1" fill="magenta"></rect>
		<rect x="-592.8345182291666" width="684.1666467323271" y="448" height="2" fill="yellow"></rect>
		<rect x="-592.8345182291666" width="0.35451822916666664" y="448" height="1" fill="magenta"></rect>
		<rect x="-439.0488671875" width="547.3333173858616" y="452" height="2" fill="lightgreen"></rect>
		<rect x="-439.0488671875" width="0.4888671875" y="452" height="1" fill="magenta"></rect>
		<rect x="-551.6040494791666" width="684.1666467323271" y="456" height="2" fill="yellow"></rect>
		<rect x="-551.6040494791666" width="0.3507161458333333" y="456" height="1" fill="magenta"></rect>
		<rect x="-17.1457421875" width="171.04166168308177" y="464" height="2" fill="cyan"></rect>
		<rect x="-17.1457421875" width="0.0257421875" y="464" height="1" fill="magenta"></rect>
		<rect x="-519.6040494791666" width="684.1666467323271" y="468" height="2" fill="yellow"></rect>
		<rect x="-519.6040494791666" width="0.4573828125" y="468" height="1" fill="magenta"></rect>
		<rect x="-349.9262239583333" width="547.3333173858616" y="472" height="2" fill="lightgreen"></rect>
		<rect x="-349.9262239583333" width="1.392890625" y="472" height="1" fill="magenta"></rect>
		<rect x="-475.9125651041667" width="684.1666467323271" y="476" height="2" fill="yellow"></rect>
		<rect x="-475.9125651041667" width="0.01923177083333333" y="476" height="1" fill="magenta"></rect>
		<rect x="63.40930989583333" width="171.04166168308177" y="484" height="2" fill="cyan"></rect>
		<rect x="-439.0488671875" width="684.1666467323271" y="488" height="2" fill="yellow"></rect>
		<rect x="-439.0488671875" width="0.4888671875" y="488" height="1" fill="magenta"></rect>
		<rect x="-287.6875130208333" width="547.3333173858616" y="492" height="2" fill="lightgreen"></rect>
		<rect x="-287.6875130208333" width="0.22084635416666668" y="492" height="1" fill="magenta"></rect>
		<rect x="-401.4622265625" width="684.1666467323271" y="496" height="2" fill="yellow"></rect>
		<rect x="-401.4622265625" width="0.07555989583333333" y="496" height="1" fill="magenta"></rect>
		<rect x="137.89592447916667" width="171.04166168308177" y="504" height="2" fill="cyan"></rect>
		<rect x="-349.9262239583333" width="684.1666467323271" y="508" height="2" fill="yellow"></rect>
		<rect x="-349.9262239583333" width="1.392890625" y="508" height="1" fill="magenta"></rect>
		<rect x="-202.42623697916667" width="547.3333173858616" y="512" height="2" fill="lightgreen"></rect>
		<rect x="-202.42623697916667" width="0.2395703125" y="512" height="1" fill="magenta"></rect>
		<rect x="-328.4842838541667" width="684.1666467323271" y="516" height="2" fill="yellow"></rect>
		<rect x="-328.4842838541667" width="0.5909505208333333" y="516" height="1" fill="magenta"></rect>
		<rect x="213.58740885416665" width="171.04166168308177" y="524" height="2" fill="cyan"></rect>
		<rect x="-287.6875130208333" width="684.1666467323271" y="528" height="2" fill="yellow"></rect>
		<rect x="-287.6875130208333" width="0.22084635416666668" y="528" height="1" fill="magenta"></rect>
		<rect x="-127.86774739583333" width="547.3333173858616" y="532" height="2" fill="lightgreen"></rect>
		<rect x="-127.86774739583333" width="1.8944140625" y="532" height="1" fill="magenta"></rect>
		<rect x="-253.96225260416668" width="684.1666467323271" y="536" height="2" fill="yellow"></rect>
		<rect x="-253.96225260416668" width="0.6289192708333333" y="536" height="1" fill="magenta"></rect>
		<rect x="288.0377473958333" width="171.04166168308177" y="544" height="2" fill="cyan"></rect>
		<rect x="-202.5344140625" width="684.1666467323271" y="548" height="2" fill="yellow"></rect>
		<rect x="-202.5344140625" width="0.2944140625" y="548" height="1" fill="magenta"></rect>
		<rect x="-55.034427083333334" width="547.3333173858616" y="552" height="2" fill="lightgreen"></rect>
		<rect x="-55.034427083333334" width="0.5277604166666666" y="552" height="1" fill="magenta"></rect>
		<rect x="-167.66204427083332" width="684.1666467323271" y="556" height="2" fill="yellow"></rect>
		<rect x="-167.66204427083332" width="0.5687109375" y="556" height="1" fill="magenta"></rect>
		<rect x="366.84125" width="170.99667439699996" y="564" height="2" fill="cyan"></rect>
		<rect x="-127.86774739583333" width="683.9866975879999" y="568" height="2" fill="yellow"></rect>
		<rect x="-127.86774739583333" width="1.8944140625" y="568" height="1" fill="magenta"></rect>
		<rect x="19.59625" width="547.1893580704" y="572" height="2" fill="lightgreen"></rect>
		<rect x="-94.4677734375" width="683.9866975879999" y="576" height="2" fill="yellow"></rect>
		<rect x="-94.50666666666666" width="0.03889322916666667" y="576" height="1" fill="magenta"></rect>
		<rect x="439.8555729166667" width="170.99667439699996" y="584" height="2" fill="cyan"></rect>
		<rect x="-62.4677734375" width="683.9866975879999" y="588" height="2" fill="yellow"></rect>
		<rect x="-62.50666666666667" width="0.03889322916666667" y="588" height="1" fill="magenta"></rect>
		<rect x="96.66545572916667" width="547.1893580704" y="592" height="2" fill="lightgreen"></rect>
		<rect x="-29.28497395833333" width="683.9866975879999" y="596" height="2" fill="yellow"></rect>
		<rect x="-29.28497395833333" width="1.6049739583333333" y="596" height="1" fill="magenta"></rect>
	</g>
	<rect id="cursor" x="0" width="1" y="0" height="100%" fill="white" transform="translate(0,200)"></rect>
	<g id="Legend" transform="translate(120, 208), scale(.5, .5)">
		<rect x="1" y="1" width="275" height="269" fill="black" stroke="#979797"></rect>
		<g transform="translate(22, 13)">
			<rect x="0" y="10" width="22" height="22" fill="cyan"></rect>
			<text font-family="Courier New" font-size="36" fill="#888">
				<tspan x="42.5" y="30">Hack</tspan>
			</text>
		</g>
		<g transform="translate(22, 54)">
			<rect x="0" y="10" width="22" height="22" fill="lightgreen"></rect>
			<text font-family="Courier New" font-size="36" fill="#888">
				<tspan x="42.5" y="30">Grow</tspan>
			</text>
		</g>
		<g transform="translate(22, 95)">
			<rect x="0" y="10" width="22" height="22" fill="yellow"></rect>
			<text font-family="Courier New" font-size="36" fill="#888">
				<tspan x="42.5" y="30">Weaken</tspan>
			</text>
		</g>
		<!--
		<g transform="translate(22, 136)">
			<rect x="0" y="10" width="22" height="22" fill="red"></rect>
			<text font-family="Courier New" font-size="36" fill="#888">
				<tspan x="42.5" y="30">Cancelled</tspan>
			</text>
		</g>
		-->
		<g transform="translate(0, -41)">
			<g transform="translate(22, 177)">
				<rect x="0" y="10" width="22" height="22" fill="magenta"></rect>
				<text font-family="Courier New" font-size="36" fill="#888">
					<tspan x="42.5" y="30">Desync</tspan>
				</text>
			</g>
			<g transform="translate(22, 218)">
				<rect x="0" y="10" width="22" height="22" fill="#111"></rect>
				<text font-family="Courier New" font-size="36" fill="#888">
					<tspan x="42.5" y="30">Safe</tspan>
				</text>
			</g>
			<g transform="translate(22, 259)">
				<rect x="0" y="10" width="22" height="22" fill="#333"></rect>
				<text font-family="Courier New" font-size="36" fill="#888">
					<tspan x="42.5" y="30">Unsafe</tspan>
				</text>
			</g>
		</g>
	</g>
</svg>
