<svg version="1.1" width="800" height="600"
	xmlns="http://www.w3.org/2000/svg" viewBox="69.28 0 800 600">
	<g id="secLayer">
		<rect x="-997.3866666666667" width="-Infinity" y="0" height="100%" fill="#111"></rect>
		<rect x="644.9696744791667" width="-Infinity" y="0" height="100%" fill="#333"></rect>
		<rect x="650.3030078125" width="-Infinity" y="0" height="100%" fill="#111"></rect>
		<rect x="655.6363411458333" width="-Infinity" y="0" height="100%" fill="#333"></rect>
		<rect x="660.9696744791667" width="-Infinity" y="0" height="100%" fill="#111"></rect>
		<rect x="671.6363411458333" width="-Infinity" y="0" height="100%" fill="#333"></rect>
		<rect x="676.9696744791667" width="-Infinity" y="0" height="100%" fill="#111"></rect>
		<rect x="682.3030078125" width="-Infinity" y="0" height="100%" fill="#333"></rect>
		<rect x="687.6363411458333" width="-Infinity" y="0" height="100%" fill="#111"></rect>
		<rect x="698.3030078125" width="-Infinity" y="0" height="100%" fill="#333"></rect>
		<rect x="703.6363411458333" width="-Infinity" y="0" height="100%" fill="#111"></rect>
		<rect x="708.9696744791667" width="-Infinity" y="0" height="100%" fill="#333"></rect>
		<rect x="714.3030078125" width="-Infinity" y="0" height="100%" fill="#111"></rect>
		<rect x="724.9696744791667" width="-Infinity" y="0" height="100%" fill="#333"></rect>
		<rect x="730.3030078125" width="-Infinity" y="0" height="100%" fill="#111"></rect>
		<rect x="735.6363411458333" width="-Infinity" y="0" height="100%" fill="#333"></rect>
		<rect x="740.9696744791667" width="-Infinity" y="0" height="100%" fill="#111"></rect>
		<rect x="751.6363411458333" width="-Infinity" y="0" height="100%" fill="#333"></rect>
		<rect x="756.9696744791667" width="-Infinity" y="0" height="100%" fill="#111"></rect>
		<rect x="762.3030078125" width="-Infinity" y="0" height="100%" fill="#333"></rect>
		<rect x="767.6363411458333" width="-Infinity" y="0" height="100%" fill="#111"></rect>
		<rect x="778.3030078125" width="-Infinity" y="0" height="100%" fill="#333"></rect>
		<rect x="783.6363411458333" width="-Infinity" y="0" height="100%" fill="#111"></rect>
		<rect x="788.9696744791667" width="-Infinity" y="0" height="100%" fill="#333"></rect>
		<rect x="794.3030078125" width="-Infinity" y="0" height="100%" fill="#111"></rect>
		<rect x="804.9696744791667" width="-Infinity" y="0" height="100%" fill="#333"></rect>
		<rect x="810.3030078125" width="-Infinity" y="0" height="100%" fill="#111"></rect>
		<rect x="815.6363411458333" width="-Infinity" y="0" height="100%" fill="#333"></rect>
		<rect x="820.9696744791667" width="-Infinity" y="0" height="100%" fill="#111"></rect>
		<rect x="831.6363411458333" width="-Infinity" y="0" height="100%" fill="#333"></rect>
		<rect x="836.9696744791667" width="-Infinity" y="0" height="100%" fill="#111"></rect>
		<rect x="842.3030078125" width="-Infinity" y="0" height="100%" fill="#333"></rect>
		<rect x="847.6363411458333" width="-Infinity" y="0" height="100%" fill="#111"></rect>
		<rect x="858.3030078125" width="-Infinity" y="0" height="100%" fill="#333"></rect>
		<rect x="863.6363411458333" width="-Infinity" y="0" height="100%" fill="#111"></rect>
		<rect x="868.9696744791667" width="-Infinity" y="0" height="100%" fill="#333"></rect>
		<rect x="874.3030078125" width="-Infinity" y="0" height="100%" fill="#111"></rect>
		<rect x="884.9696744791667" width="-Infinity" y="0" height="100%" fill="#333"></rect>
		<rect x="890.3030078125" width="-Infinity" y="0" height="100%" fill="#111"></rect>
		<rect x="895.6363411458333" width="-Infinity" y="0" height="100%" fill="#333"></rect>
		<rect x="900.9696744791667" width="-Infinity" y="0" height="100%" fill="#111"></rect>
		<rect x="911.6363411458333" width="-Infinity" y="0" height="100%" fill="#333"></rect>
		<rect x="916.9696744791667" width="-Infinity" y="0" height="100%" fill="#111"></rect>
		<rect x="922.3030078125" width="-Infinity" y="0" height="100%" fill="#333"></rect>
		<rect x="927.6363411458333" width="-Infinity" y="0" height="100%" fill="#111"></rect>
		<rect x="938.3030078125" width="-Infinity" y="0" height="100%" fill="#333"></rect>
		<rect x="943.6363411458333" width="-Infinity" y="0" height="100%" fill="#111"></rect>
		<rect x="948.9696744791667" width="-Infinity" y="0" height="100%" fill="#333"></rect>
		<rect x="954.3030078125" width="-Infinity" y="0" height="100%" fill="#111"></rect>
		<rect x="964.9696744791667" width="-Infinity" y="0" height="100%" fill="#333"></rect>
		<rect x="970.3030078125" width="-Infinity" y="0" height="100%" fill="#111"></rect>
		<rect x="975.6363411458333" width="-Infinity" y="0" height="100%" fill="#333"></rect>
		<rect x="980.9696744791667" width="-Infinity" y="0" height="100%" fill="#111"></rect>
		<rect x="991.6363411458333" width="-Infinity" y="0" height="100%" fill="#333"></rect>
		<rect x="996.9696744791667" width="-Infinity" y="0" height="100%" fill="#111"></rect>
		<rect x="1002.3030078125" width="-Infinity" y="0" height="100%" fill="#333"></rect>
		<rect x="1007.6363411458333" width="-Infinity" y="0" height="100%" fill="#111"></rect>
		<rect x="1018.3030078125" width="-Infinity" y="0" height="100%" fill="#333"></rect>
		<rect x="1023.6363411458333" width="-Infinity" y="0" height="100%" fill="#111"></rect>
		<rect x="1028.9696744791668" width="-Infinity" y="0" height="100%" fill="#333"></rect>
		<rect x="1034.3030078125" width="-Infinity" y="0" height="100%" fill="#111"></rect>
		<rect x="1044.9696744791668" width="-Infinity" y="0" height="100%" fill="#333"></rect>
		<rect x="1050.3030078125" width="-Infinity" y="0" height="100%" fill="#111"></rect>
		<rect x="1055.6363411458333" width="-Infinity" y="0" height="100%" fill="#333"></rect>
		<rect x="1060.9696744791668" width="-Infinity" y="0" height="100%" fill="#111"></rect>
		<rect x="1071.6363411458333" width="-Infinity" y="0" height="100%" fill="#333"></rect>
		<rect x="1076.9696744791668" width="-Infinity" y="0" height="100%" fill="#111"></rect>
		<rect x="1082.3030078125" width="-Infinity" y="0" height="100%" fill="#333"></rect>
		<rect x="1087.6363411458333" width="-Infinity" y="0" height="100%" fill="#111"></rect>
		<rect x="1098.3030078125" width="-Infinity" y="0" height="100%" fill="#333"></rect>
		<rect x="1103.6363411458333" width="-Infinity" y="0" height="100%" fill="#111"></rect>
		<rect x="1108.9696744791668" width="-Infinity" y="0" height="100%" fill="#333"></rect>
		<rect x="1114.3030078125" width="-Infinity" y="0" height="100%" fill="#111"></rect>
		<rect x="1124.9696744791668" width="-Infinity" y="0" height="100%" fill="#333"></rect>
		<rect x="1130.3030078125" width="-Infinity" y="0" height="100%" fill="#111"></rect>
		<rect x="1135.6363411458333" width="-Infinity" y="0" height="100%" fill="#333"></rect>
		<rect x="1140.9696744791668" width="-Infinity" y="0" height="100%" fill="#111"></rect>
		<rect x="1151.6363411458333" width="-Infinity" y="0" height="100%" fill="#333"></rect>
		<rect x="1156.9696744791668" width="-Infinity" y="0" height="100%" fill="#111"></rect>
		<rect x="1168.817421875" width="-Infinity" y="0" height="100%" fill="#333"></rect>
		<rect x="1174.1507552083333" width="-Infinity" y="0" height="100%" fill="#111"></rect>
		<rect x="1187.5054296875" width="-Infinity" y="0" height="100%" fill="#333"></rect>
		<rect x="1192.8387630208333" width="-Infinity" y="0" height="100%" fill="#111"></rect>
		<rect x="1206.1507552083333" width="-Infinity" y="0" height="100%" fill="#333"></rect>
		<rect x="1211.4840885416668" width="-Infinity" y="0" height="100%" fill="#111"></rect>
		<rect x="1224.8387630208333" width="-Infinity" y="0" height="100%" fill="#333"></rect>
		<rect x="1230.1720963541666" width="-Infinity" y="0" height="100%" fill="#111"></rect>
		<rect x="1235.5054296875" width="-Infinity" y="0" height="100%" fill="#333"></rect>
		<rect x="1240.8387630208333" width="-Infinity" y="0" height="100%" fill="#111"></rect>
	</g>
	<g id="jobLayer">
		<rect x="483.7672526041667" width="-Infinity" y="4" height="2" fill="cyan"></rect>
		<rect x="483.7672526041667" width="-Infinity" y="4" height="1" fill="magenta"></rect>
		<rect x="5.493333333333333" width="-Infinity" y="8" height="2" fill="yellow"></rect>
		<rect x="5.493333333333333" width="-Infinity" y="8" height="1" fill="magenta"></rect>
		<rect x="139.78859375" width="-Infinity" y="12" height="2" fill="lightgreen"></rect>
		<rect x="139.78859375" width="-Infinity" y="12" height="1" fill="magenta"></rect>
		<rect x="16.16" width="-Infinity" y="16" height="2" fill="yellow"></rect>
		<rect x="16.16" width="-Infinity" y="16" height="1" fill="magenta"></rect>
		<rect x="510.4339192708333" width="-Infinity" y="24" height="2" fill="cyan"></rect>
		<rect x="510.4339192708333" width="-Infinity" y="24" height="1" fill="magenta"></rect>
		<rect x="32.16" width="-Infinity" y="28" height="2" fill="yellow"></rect>
		<rect x="32.16" width="-Infinity" y="28" height="1" fill="magenta"></rect>
		<rect x="166.45526041666668" width="-Infinity" y="32" height="2" fill="lightgreen"></rect>
		<rect x="166.45526041666668" width="-Infinity" y="32" height="1" fill="magenta"></rect>
		<rect x="42.82666666666667" width="-Infinity" y="36" height="2" fill="yellow"></rect>
		<rect x="42.82666666666667" width="-Infinity" y="36" height="1" fill="magenta"></rect>
		<rect x="537.1005859375" width="-Infinity" y="44" height="2" fill="cyan"></rect>
		<rect x="537.1005859375" width="-Infinity" y="44" height="1" fill="magenta"></rect>
		<rect x="58.82666666666667" width="-Infinity" y="48" height="2" fill="yellow"></rect>
		<rect x="58.82666666666667" width="-Infinity" y="48" height="1" fill="magenta"></rect>
		<rect x="193.12192708333333" width="-Infinity" y="52" height="2" fill="lightgreen"></rect>
		<rect x="193.12192708333333" width="-Infinity" y="52" height="1" fill="magenta"></rect>
		<rect x="69.49333333333334" width="-Infinity" y="56" height="2" fill="yellow"></rect>
		<rect x="69.49333333333334" width="-Infinity" y="56" height="1" fill="magenta"></rect>
		<rect x="563.7672526041666" width="-Infinity" y="64" height="2" fill="cyan"></rect>
		<rect x="563.7672526041666" width="-Infinity" y="64" height="1" fill="magenta"></rect>
		<rect x="85.49333333333334" width="-Infinity" y="68" height="2" fill="yellow"></rect>
		<rect x="85.49333333333334" width="-Infinity" y="68" height="1" fill="magenta"></rect>
		<rect x="219.78859375" width="-Infinity" y="72" height="2" fill="lightgreen"></rect>
		<rect x="219.78859375" width="-Infinity" y="72" height="1" fill="magenta"></rect>
		<rect x="96.16" width="-Infinity" y="76" height="2" fill="yellow"></rect>
		<rect x="96.16" width="-Infinity" y="76" height="1" fill="magenta"></rect>
		<rect x="590.4339192708334" width="-Infinity" y="84" height="2" fill="cyan"></rect>
		<rect x="590.4339192708334" width="-Infinity" y="84" height="1" fill="magenta"></rect>
		<rect x="112.16" width="-Infinity" y="88" height="2" fill="yellow"></rect>
		<rect x="112.16" width="-Infinity" y="88" height="1" fill="magenta"></rect>
		<rect x="246.45526041666668" width="-Infinity" y="92" height="2" fill="lightgreen"></rect>
		<rect x="246.45526041666668" width="-Infinity" y="92" height="1" fill="magenta"></rect>
		<rect x="122.82666666666667" width="-Infinity" y="96" height="2" fill="yellow"></rect>
		<rect x="122.82666666666667" width="-Infinity" y="96" height="1" fill="magenta"></rect>
		<rect x="617.1005859375" width="-Infinity" y="104" height="2" fill="cyan"></rect>
		<rect x="138.82666666666665" width="-Infinity" y="108" height="2" fill="yellow"></rect>
		<rect x="138.82666666666665" width="-Infinity" y="108" height="1" fill="magenta"></rect>
		<rect x="273.12192708333333" width="-Infinity" y="112" height="2" fill="lightgreen"></rect>
		<rect x="273.12192708333333" width="-Infinity" y="112" height="1" fill="magenta"></rect>
		<rect x="149.49333333333334" width="-Infinity" y="116" height="2" fill="yellow"></rect>
		<rect x="149.49333333333334" width="-Infinity" y="116" height="1" fill="magenta"></rect>
		<rect x="643.7672526041666" width="-Infinity" y="124" height="2" fill="cyan"></rect>
		<rect x="165.49333333333334" width="-Infinity" y="128" height="2" fill="yellow"></rect>
		<rect x="165.49333333333334" width="-Infinity" y="128" height="1" fill="magenta"></rect>
		<rect x="299.78859375" width="-Infinity" y="132" height="2" fill="lightgreen"></rect>
		<rect x="299.78859375" width="-Infinity" y="132" height="1" fill="magenta"></rect>
		<rect x="176.16" width="-Infinity" y="136" height="2" fill="yellow"></rect>
		<rect x="176.16" width="-Infinity" y="136" height="1" fill="magenta"></rect>
		<rect x="670.4339192708334" width="-Infinity" y="144" height="2" fill="cyan"></rect>
		<rect x="192.16" width="-Infinity" y="148" height="2" fill="yellow"></rect>
		<rect x="192.16" width="-Infinity" y="148" height="1" fill="magenta"></rect>
		<rect x="326.45526041666665" width="-Infinity" y="152" height="2" fill="lightgreen"></rect>
		<rect x="326.45526041666665" width="-Infinity" y="152" height="1" fill="magenta"></rect>
		<rect x="202.82666666666665" width="-Infinity" y="156" height="2" fill="yellow"></rect>
		<rect x="202.82666666666665" width="-Infinity" y="156" height="1" fill="magenta"></rect>
		<rect x="697.1005859375" width="-Infinity" y="164" height="2" fill="cyan"></rect>
		<rect x="218.82666666666665" width="-Infinity" y="168" height="2" fill="yellow"></rect>
		<rect x="218.82666666666665" width="-Infinity" y="168" height="1" fill="magenta"></rect>
		<rect x="353.12192708333333" width="-Infinity" y="172" height="2" fill="lightgreen"></rect>
		<rect x="353.12192708333333" width="-Infinity" y="172" height="1" fill="magenta"></rect>
		<rect x="229.49333333333334" width="-Infinity" y="176" height="2" fill="yellow"></rect>
		<rect x="229.49333333333334" width="-Infinity" y="176" height="1" fill="magenta"></rect>
		<rect x="723.7672526041666" width="-Infinity" y="184" height="2" fill="cyan"></rect>
		<rect x="245.49333333333334" width="-Infinity" y="188" height="2" fill="yellow"></rect>
		<rect x="245.49333333333334" width="-Infinity" y="188" height="1" fill="magenta"></rect>
		<rect x="379.78859375" width="-Infinity" y="192" height="2" fill="lightgreen"></rect>
		<rect x="379.78859375" width="-Infinity" y="192" height="1" fill="magenta"></rect>
		<rect x="256.16" width="-Infinity" y="196" height="2" fill="yellow"></rect>
		<rect x="256.16" width="-Infinity" y="196" height="1" fill="magenta"></rect>
		<rect x="750.4339192708334" width="-Infinity" y="204" height="2" fill="cyan"></rect>
		<rect x="272.16" width="-Infinity" y="208" height="2" fill="yellow"></rect>
		<rect x="272.16" width="-Infinity" y="208" height="1" fill="magenta"></rect>
		<rect x="406.45526041666665" width="-Infinity" y="212" height="2" fill="lightgreen"></rect>
		<rect x="406.45526041666665" width="-Infinity" y="212" height="1" fill="magenta"></rect>
		<rect x="282.82666666666665" width="-Infinity" y="216" height="2" fill="yellow"></rect>
		<rect x="282.82666666666665" width="-Infinity" y="216" height="1" fill="magenta"></rect>
		<rect x="777.1005859375" width="-Infinity" y="224" height="2" fill="cyan"></rect>
		<rect x="298.82666666666665" width="-Infinity" y="228" height="2" fill="yellow"></rect>
		<rect x="298.82666666666665" width="-Infinity" y="228" height="1" fill="magenta"></rect>
		<rect x="433.12192708333333" width="-Infinity" y="232" height="2" fill="lightgreen"></rect>
		<rect x="433.12192708333333" width="-Infinity" y="232" height="1" fill="magenta"></rect>
		<rect x="309.49333333333334" width="-Infinity" y="236" height="2" fill="yellow"></rect>
		<rect x="309.49333333333334" width="-Infinity" y="236" height="1" fill="magenta"></rect>
		<rect x="803.7672526041666" width="-Infinity" y="244" height="2" fill="cyan"></rect>
		<rect x="325.49333333333334" width="-Infinity" y="248" height="2" fill="yellow"></rect>
		<rect x="325.49333333333334" width="-Infinity" y="248" height="1" fill="magenta"></rect>
		<rect x="459.78859375" width="-Infinity" y="252" height="2" fill="lightgreen"></rect>
		<rect x="459.78859375" width="-Infinity" y="252" height="1" fill="magenta"></rect>
		<rect x="336.16" width="-Infinity" y="256" height="2" fill="yellow"></rect>
		<rect x="336.16" width="-Infinity" y="256" height="1" fill="magenta"></rect>
		<rect x="830.4339192708334" width="-Infinity" y="264" height="2" fill="cyan"></rect>
		<rect x="352.16" width="-Infinity" y="268" height="2" fill="yellow"></rect>
		<rect x="352.16" width="-Infinity" y="268" height="1" fill="magenta"></rect>
		<rect x="486.45526041666665" width="-Infinity" y="272" height="2" fill="lightgreen"></rect>
		<rect x="486.45526041666665" width="-Infinity" y="272" height="1" fill="magenta"></rect>
		<rect x="362.82666666666665" width="-Infinity" y="276" height="2" fill="yellow"></rect>
		<rect x="362.82666666666665" width="-Infinity" y="276" height="1" fill="magenta"></rect>
		<rect x="857.1005859375" width="-Infinity" y="284" height="2" fill="cyan"></rect>
		<rect x="378.82666666666665" width="-Infinity" y="288" height="2" fill="yellow"></rect>
		<rect x="378.82666666666665" width="-Infinity" y="288" height="1" fill="magenta"></rect>
		<rect x="513.1219270833334" width="-Infinity" y="292" height="2" fill="lightgreen"></rect>
		<rect x="513.1219270833334" width="-Infinity" y="292" height="1" fill="magenta"></rect>
		<rect x="389.49333333333334" width="-Infinity" y="296" height="2" fill="yellow"></rect>
		<rect x="389.49333333333334" width="-Infinity" y="296" height="1" fill="magenta"></rect>
		<rect x="883.7672526041666" width="-Infinity" y="304" height="2" fill="cyan"></rect>
		<rect x="405.49333333333334" width="-Infinity" y="308" height="2" fill="yellow"></rect>
		<rect x="405.49333333333334" width="-Infinity" y="308" height="1" fill="magenta"></rect>
		<rect x="539.78859375" width="-Infinity" y="312" height="2" fill="lightgreen"></rect>
		<rect x="539.78859375" width="-Infinity" y="312" height="1" fill="magenta"></rect>
		<rect x="416.16" width="-Infinity" y="316" height="2" fill="yellow"></rect>
		<rect x="416.16" width="-Infinity" y="316" height="1" fill="magenta"></rect>
		<rect x="910.4339192708334" width="-Infinity" y="324" height="2" fill="cyan"></rect>
		<rect x="432.16" width="-Infinity" y="328" height="2" fill="yellow"></rect>
		<rect x="432.16" width="-Infinity" y="328" height="1" fill="magenta"></rect>
		<rect x="566.4552604166666" width="-Infinity" y="332" height="2" fill="lightgreen"></rect>
		<rect x="566.4552604166666" width="-Infinity" y="332" height="1" fill="magenta"></rect>
		<rect x="442.82666666666665" width="-Infinity" y="336" height="2" fill="yellow"></rect>
		<rect x="442.82666666666665" width="-Infinity" y="336" height="1" fill="magenta"></rect>
		<rect x="937.1005859375" width="-Infinity" y="344" height="2" fill="cyan"></rect>
		<rect x="458.82666666666665" width="-Infinity" y="348" height="2" fill="yellow"></rect>
		<rect x="458.82666666666665" width="-Infinity" y="348" height="1" fill="magenta"></rect>
		<rect x="593.1219270833334" width="-Infinity" y="352" height="2" fill="lightgreen"></rect>
		<rect x="593.1219270833334" width="-Infinity" y="352" height="1" fill="magenta"></rect>
		<rect x="469.49333333333334" width="-Infinity" y="356" height="2" fill="yellow"></rect>
		<rect x="469.49333333333334" width="-Infinity" y="356" height="1" fill="magenta"></rect>
		<rect x="963.7672526041666" width="-Infinity" y="364" height="2" fill="cyan"></rect>
		<rect x="485.49333333333334" width="-Infinity" y="368" height="2" fill="yellow"></rect>
		<rect x="485.49333333333334" width="-Infinity" y="368" height="1" fill="magenta"></rect>
		<rect x="619.78859375" width="-Infinity" y="372" height="2" fill="lightgreen"></rect>
		<rect x="496.16" width="-Infinity" y="376" height="2" fill="yellow"></rect>
		<rect x="496.16" width="-Infinity" y="376" height="1" fill="magenta"></rect>
		<rect x="990.4339192708334" width="-Infinity" y="384" height="2" fill="cyan"></rect>
		<rect x="512.16" width="-Infinity" y="388" height="2" fill="yellow"></rect>
		<rect x="512.16" width="-Infinity" y="388" height="1" fill="magenta"></rect>
		<rect x="652.9696744791667" width="-Infinity" y="392" height="2" fill="lightgreen"></rect>
		<rect x="529.3410807291667" width="-Infinity" y="396" height="2" fill="yellow"></rect>
		<rect x="529.3410807291667" width="-Infinity" y="396" height="1" fill="magenta"></rect>
		<rect x="1026.3030078125" width="-Infinity" y="404" height="2" fill="cyan"></rect>
		<rect x="548.0290885416666" width="-Infinity" y="408" height="2" fill="yellow"></rect>
		<rect x="548.0290885416666" width="-Infinity" y="408" height="1" fill="magenta"></rect>
		<rect x="690.3030078125" width="-Infinity" y="412" height="2" fill="lightgreen"></rect>
		<rect x="566.6744140625" width="-Infinity" y="416" height="2" fill="yellow"></rect>
		<rect x="566.6744140625" width="-Infinity" y="416" height="1" fill="magenta"></rect>
		<rect x="1063.6363411458333" width="-Infinity" y="424" height="2" fill="cyan"></rect>
		<rect x="585.362421875" width="-Infinity" y="428" height="2" fill="yellow"></rect>
		<rect x="585.362421875" width="-Infinity" y="428" height="1" fill="magenta"></rect>
		<rect x="719.6576822916667" width="-Infinity" y="432" height="2" fill="lightgreen"></rect>
		<rect x="596.0290885416666" width="-Infinity" y="436" height="2" fill="yellow"></rect>
		<rect x="596.0290885416666" width="-Infinity" y="436" height="1" fill="magenta"></rect>
	</g>
	<rect id="cursor" x="0" width="1" y="0" height="100%" fill="white"></rect>
	<g id="Legend" transform="translate(-525, 8), scale(.5, .5)">
		<rect x="1" y="1" width="275" height="310" fill="black" stroke="#979797"></rect>
		<g transform="translate(22, 13)">
			<rect x="0" y="10" width="22" height="22" fill="cyan"></rect>
			<text font-family="Courier New" font-size="36" fill="#888">
				<tspan x="42.5" y="30">Hack</tspan>
			</text>
		</g>
		<g transform="translate(22, 54)">
			<rect x="0" y="10" width="22" height="22" fill="lightgreen"></rect>
			<text font-family="Courier New" font-size="36" fill="#888">
				<tspan x="42.5" y="30">Grow</tspan>
			</text>
		</g>
		<g transform="translate(22, 95)">
			<rect x="0" y="10" width="22" height="22" fill="yellow"></rect>
			<text font-family="Courier New" font-size="36" fill="#888">
				<tspan x="42.5" y="30">Weaken</tspan>
			</text>
		</g>
		<g transform="translate(22, 136)">
			<rect x="0" y="10" width="22" height="22" fill="red"></rect>
			<text font-family="Courier New" font-size="36" fill="#888">
				<tspan x="42.5" y="30">Cancelled</tspan>
			</text>
		</g>
		<g transform="translate(22, 177)">
			<rect x="0" y="10" width="22" height="22" fill="magenta"></rect>
			<text font-family="Courier New" font-size="36" fill="#888">
				<tspan x="42.5" y="30">Desync</tspan>
			</text>
		</g>
		<g transform="translate(22, 218)">
			<rect x="0" y="10" width="22" height="22" fill="#111"></rect>
			<text font-family="Courier New" font-size="36" fill="#888">
				<tspan x="42.5" y="30">Safe</tspan>
			</text>
		</g>
		<g transform="translate(22, 259)">
			<rect x="0" y="10" width="22" height="22" fill="#333"></rect>
			<text font-family="Courier New" font-size="36" fill="#888">
				<tspan x="42.5" y="30">Unsafe</tspan>
			</text>
		</g>
	</g>
</svg>
